<svg xmlns="http://www.w3.org/2000/svg" width="1024" height="1024" fill="none" viewBox="0 0 1024 1024" id="facetime"><rect width="690" height="690" x="167" y="167" fill="#000" rx="100"></rect><rect width="690" height="690" x="167" y="167" fill="url(#paint0_linear_37_1005)" fill-opacity=".7" rx="100"></rect><g filter="url(#filter0_diii_37_1005)"><path fill="#2DFF28" d="M539.5 386H365.5C335.5 386 310 411.45 310 441.391V583.609C310 613.55 335.5 639 365.5 639H539.5C569.5 639 595 613.55 595 583.609V441.391C595 409.953 569.5 386 539.5 386Z"></path><path fill="url(#paint1_linear_37_1005)" d="M539.5 386H365.5C335.5 386 310 411.45 310 441.391V583.609C310 613.55 335.5 639 365.5 639H539.5C569.5 639 595 613.55 595 583.609V441.391C595 409.953 569.5 386 539.5 386Z"></path><path fill="url(#paint2_linear_37_1005)" fill-opacity=".7" d="M539.5 386H365.5C335.5 386 310 411.45 310 441.391V583.609C310 613.55 335.5 639 365.5 639H539.5C569.5 639 595 613.55 595 583.609V441.391C595 409.953 569.5 386 539.5 386Z"></path></g><g filter="url(#filter1_diii_37_1005)"><path fill="#2DFF28" d="M675.821 398.07L617.03 448.963C614.015 451.957 611 456.448 611 460.938V561.228C611 565.718 612.507 570.209 617.03 573.203L675.821 625.593C689.388 637.568 712 628.587 712 609.127V414.536C712 395.076 690.896 384.598 675.821 398.07Z"></path><path fill="url(#paint3_linear_37_1005)" d="M675.821 398.07L617.03 448.963C614.015 451.957 611 456.448 611 460.938V561.228C611 565.718 612.507 570.209 617.03 573.203L675.821 625.593C689.388 637.568 712 628.587 712 609.127V414.536C712 395.076 690.896 384.598 675.821 398.07Z"></path><path fill="url(#paint4_linear_37_1005)" fill-opacity=".7" d="M675.821 398.07L617.03 448.963C614.015 451.957 611 456.448 611 460.938V561.228C611 565.718 612.507 570.209 617.03 573.203L675.821 625.593C689.388 637.568 712 628.587 712 609.127V414.536C712 395.076 690.896 384.598 675.821 398.07Z"></path></g><defs><linearGradient id="paint0_linear_37_1005" x1="512" x2="512" y1="167" y2="857" gradientUnits="userSpaceOnUse"><stop></stop><stop offset="1" stop-color="#fff" stop-opacity="0"></stop></linearGradient><linearGradient id="paint1_linear_37_1005" x1="452.718" x2="452.718" y1="295.141" y2="582.778" gradientUnits="userSpaceOnUse"><stop offset=".005" stop-color="#fff" stop-opacity=".08"></stop><stop offset=".085" stop-opacity=".08"></stop><stop offset=".337" stop-color="#fff" stop-opacity=".1"></stop><stop offset=".661" stop-color="#fff" stop-opacity=".1"></stop><stop offset="1" stop-opacity=".1"></stop></linearGradient><linearGradient id="paint2_linear_37_1005" x1="452.5" x2="452.5" y1="386" y2="639" gradientUnits="userSpaceOnUse"><stop stop-color="#2DFF28"></stop><stop offset="1" stop-color="#fff" stop-opacity="0"></stop></linearGradient><linearGradient id="paint3_linear_37_1005" x1="661.577" x2="661.577" y1="306.169" y2="577.889" gradientUnits="userSpaceOnUse"><stop offset=".005" stop-color="#fff" stop-opacity=".08"></stop><stop offset=".085" stop-opacity=".08"></stop><stop offset=".337" stop-color="#fff" stop-opacity=".1"></stop><stop offset=".661" stop-color="#fff" stop-opacity=".1"></stop><stop offset="1" stop-opacity=".1"></stop></linearGradient><linearGradient id="paint4_linear_37_1005" x1="661.5" x2="661.5" y1="392" y2="631" gradientUnits="userSpaceOnUse"><stop stop-color="#2DFF28"></stop><stop offset="1" stop-color="#fff" stop-opacity="0"></stop></linearGradient><filter id="filter0_diii_37_1005" width="325" height="306.656" x="290" y="365.806" color-interpolation-filters="sRGB" filterUnits="userSpaceOnUse"><feFlood flood-opacity="0" result="BackgroundImageFix"></feFlood><feColorMatrix in="SourceAlpha" result="hardAlpha" values="0 0 0 0 0 0 0 0 0 0 0 0 0 0 0 0 0 0 127 0"></feColorMatrix><feOffset dy="13.462"></feOffset><feGaussianBlur stdDeviation="10"></feGaussianBlur><feColorMatrix values="0 0 0 0 0.176471 0 0 0 0 1 0 0 0 0 0.156863 0 0 0 0.6 0"></feColorMatrix><feBlend in2="BackgroundImageFix" result="effect1_dropShadow_37_1005"></feBlend><feBlend in="SourceGraphic" in2="effect1_dropShadow_37_1005" result="shape"></feBlend><feColorMatrix in="SourceAlpha" result="hardAlpha" values="0 0 0 0 0 0 0 0 0 0 0 0 0 0 0 0 0 0 127 0"></feColorMatrix><feOffset dy="-20.194"></feOffset><feGaussianBlur stdDeviation="45"></feGaussianBlur><feComposite in2="hardAlpha" k2="-1" k3="1" operator="arithmetic"></feComposite><feColorMatrix values="0 0 0 0 0.176471 0 0 0 0 1 0 0 0 0 0.156863 0 0 0 0.6 0"></feColorMatrix><feBlend in2="shape" result="effect2_innerShadow_37_1005"></feBlend><feColorMatrix in="SourceAlpha" result="hardAlpha" values="0 0 0 0 0 0 0 0 0 0 0 0 0 0 0 0 0 0 127 0"></feColorMatrix><feOffset dy="-15"></feOffset><feGaussianBlur stdDeviation="6.5"></feGaussianBlur><feComposite in2="hardAlpha" k2="-1" k3="1" operator="arithmetic"></feComposite><feColorMatrix values="0 0 0 0 1 0 0 0 0 1 0 0 0 0 1 0 0 0 0.3 0"></feColorMatrix><feBlend in2="effect2_innerShadow_37_1005" result="effect3_innerShadow_37_1005"></feBlend><feColorMatrix in="SourceAlpha" result="hardAlpha" values="0 0 0 0 0 0 0 0 0 0 0 0 0 0 0 0 0 0 127 0"></feColorMatrix><feOffset dy="10"></feOffset><feGaussianBlur stdDeviation="7"></feGaussianBlur><feComposite in2="hardAlpha" k2="-1" k3="1" operator="arithmetic"></feComposite><feColorMatrix values="0 0 0 0 1 0 0 0 0 1 0 0 0 0 1 0 0 0 0.25 0"></feColorMatrix><feBlend in2="effect3_innerShadow_37_1005" result="effect4_innerShadow_37_1005"></feBlend></filter><filter id="filter1_diii_37_1005" width="141" height="292.656" x="591" y="371.806" color-interpolation-filters="sRGB" filterUnits="userSpaceOnUse"><feFlood flood-opacity="0" result="BackgroundImageFix"></feFlood><feColorMatrix in="SourceAlpha" result="hardAlpha" values="0 0 0 0 0 0 0 0 0 0 0 0 0 0 0 0 0 0 127 0"></feColorMatrix><feOffset dy="13.462"></feOffset><feGaussianBlur stdDeviation="10"></feGaussianBlur><feColorMatrix values="0 0 0 0 0.176471 0 0 0 0 1 0 0 0 0 0.156863 0 0 0 0.6 0"></feColorMatrix><feBlend in2="BackgroundImageFix" result="effect1_dropShadow_37_1005"></feBlend><feBlend in="SourceGraphic" in2="effect1_dropShadow_37_1005" result="shape"></feBlend><feColorMatrix in="SourceAlpha" result="hardAlpha" values="0 0 0 0 0 0 0 0 0 0 0 0 0 0 0 0 0 0 127 0"></feColorMatrix><feOffset dy="-20.194"></feOffset><feGaussianBlur stdDeviation="45"></feGaussianBlur><feComposite in2="hardAlpha" k2="-1" k3="1" operator="arithmetic"></feComposite><feColorMatrix values="0 0 0 0 0.176471 0 0 0 0 1 0 0 0 0 0.156863 0 0 0 0.6 0"></feColorMatrix><feBlend in2="shape" result="effect2_innerShadow_37_1005"></feBlend><feColorMatrix in="SourceAlpha" result="hardAlpha" values="0 0 0 0 0 0 0 0 0 0 0 0 0 0 0 0 0 0 127 0"></feColorMatrix><feOffset dy="-15"></feOffset><feGaussianBlur stdDeviation="6.5"></feGaussianBlur><feComposite in2="hardAlpha" k2="-1" k3="1" operator="arithmetic"></feComposite><feColorMatrix values="0 0 0 0 1 0 0 0 0 1 0 0 0 0 1 0 0 0 0.3 0"></feColorMatrix><feBlend in2="effect2_innerShadow_37_1005" result="effect3_innerShadow_37_1005"></feBlend><feColorMatrix in="SourceAlpha" result="hardAlpha" values="0 0 0 0 0 0 0 0 0 0 0 0 0 0 0 0 0 0 127 0"></feColorMatrix><feOffset dy="10"></feOffset><feGaussianBlur stdDeviation="7"></feGaussianBlur><feComposite in2="hardAlpha" k2="-1" k3="1" operator="arithmetic"></feComposite><feColorMatrix values="0 0 0 0 1 0 0 0 0 1 0 0 0 0 1 0 0 0 0.25 0"></feColorMatrix><feBlend in2="effect3_innerShadow_37_1005" result="effect4_innerShadow_37_1005"></feBlend></filter></defs></svg>